<svg version="1.1" id="Layer_1" xmlns="http://www.w3.org/2000/svg" xmlns:xlink="http://www.w3.org/1999/xlink" x="0px" y="0px"
	 width="100%" viewBox="0 0 618 618" enable-background="new 0 0 618 618" xml:space="preserve">
<path fill="#121417" opacity="1.000000" stroke="none" 
	d="
M1.000000,229.000000 
	C1.000000,152.681992 1.000000,76.863991 1.000000,1.022991 
	C206.943039,1.022991 412.886078,1.022991 618.914551,1.022991 
	C618.914551,206.901382 618.914551,412.802795 618.914551,618.852112 
	C413.000092,618.852112 207.000046,618.852112 1.000000,618.852112 
	C1.000000,489.113892 1.000000,359.306946 1.000000,229.000000 
M120.114616,253.570847 
	C120.752403,253.907730 121.390190,254.244614 122.312035,254.996109 
	C122.478035,255.018646 122.644035,255.041199 123.110016,255.658844 
	C134.048187,262.989227 146.028061,267.655579 159.511017,270.144958 
	C160.347321,270.193756 161.183624,270.242584 162.802292,270.684296 
	C164.548431,270.745300 166.294586,270.806274 168.761108,271.242126 
	C173.500320,271.131256 178.239532,271.020355 183.806366,271.081940 
	C185.192352,270.910889 186.578339,270.739838 188.642105,270.792145 
	C189.750961,270.482208 190.859818,270.172272 192.741669,269.956909 
	C193.481201,269.746948 194.220718,269.536987 195.566223,269.554016 
	C196.359909,269.300476 197.153610,269.046936 198.668869,268.870514 
	C199.092010,268.653351 199.515152,268.436188 200.664413,268.361847 
	C206.866608,266.165039 213.068802,263.968231 220.040436,261.726562 
	C225.797607,258.191803 231.554779,254.657059 237.964447,250.999451 
	C243.549301,245.440872 249.134171,239.882309 255.280167,234.042496 
	C267.315582,220.775604 270.794434,204.119675 274.246277,186.772400 
	C277.686615,172.561554 283.860779,159.765747 294.484009,148.721542 
	C302.172302,141.742996 311.366364,137.627777 322.081573,134.687759 
	C325.055511,134.183914 328.029449,133.680069 331.725952,133.432007 
	C333.428497,133.181580 335.131012,132.931137 337.773468,132.875381 
	C345.845978,132.747849 353.918457,132.620316 362.762878,132.811737 
	C371.575409,132.760529 380.387909,132.709335 390.007477,132.974136 
	C394.135101,133.031921 398.263184,133.161743 402.390228,133.133850 
	C414.259949,133.053665 426.129242,132.909729 438.822815,133.094299 
	C440.559174,132.989090 442.295532,132.883881 444.914001,133.108978 
	C456.633026,133.063919 468.352051,133.018875 480.772430,133.356354 
	C495.265320,133.441193 509.758514,133.494522 524.250793,133.639847 
	C526.870911,133.666122 528.269531,132.966293 528.266846,130.013474 
	C528.250488,112.019295 528.306458,94.024780 528.429443,76.030998 
	C528.452942,72.596603 527.020447,72.052368 523.802124,72.220718 
	C516.857361,72.583992 509.880066,72.283539 502.917084,72.353729 
	C497.604736,72.407272 492.293915,72.613174 486.117065,72.476616 
	C483.409119,72.582649 480.701172,72.688683 477.106842,72.478424 
	C468.415985,72.561592 459.725128,72.644760 450.192596,72.422226 
	C448.121826,72.519341 446.051025,72.616455 443.264496,72.444199 
	C442.516876,72.532616 441.769226,72.621033 440.359558,72.429146 
	C439.898956,72.521690 439.438324,72.614235 438.141357,72.433792 
	C436.103607,72.519875 434.065826,72.605957 431.291473,72.398560 
	C430.517883,72.493469 429.744324,72.588379 428.109955,72.415161 
	C425.414673,72.499519 422.719421,72.583878 419.128265,72.372208 
	C409.737671,72.460182 400.347076,72.548149 390.058502,72.380165 
	C381.034668,72.464813 372.010834,72.549469 362.090912,72.354897 
	C348.402405,72.436066 334.713928,72.517227 320.118042,72.329918 
	C313.406952,72.409355 306.695862,72.488785 299.084167,72.306801 
	C292.717194,72.389076 286.350250,72.471352 279.081421,72.298515 
	C273.048798,72.376335 267.016205,72.454155 260.079468,72.282455 
	C250.721451,72.359299 241.363434,72.436134 231.105484,72.271133 
	C227.070465,72.350578 223.035461,72.430023 218.092072,72.266960 
	C207.722412,72.336060 197.352753,72.405159 186.078842,72.234894 
	C180.347931,72.386589 174.617020,72.538292 168.046158,72.426392 
	C159.150436,73.698792 150.521088,75.874954 142.083130,79.770096 
	C136.677094,82.473640 131.271057,85.177177 125.333771,87.978119 
	C125.215668,88.114006 125.097565,88.249886 124.340393,88.433418 
	C122.829613,89.576385 121.318832,90.719345 119.299271,92.005074 
	C119.199974,92.150558 119.100670,92.296051 118.410675,92.526405 
	C117.526421,93.293251 116.642159,94.060089 115.173470,95.004112 
	C114.776505,95.455696 114.379532,95.907280 113.367371,96.499153 
	C110.015778,99.995018 106.664177,103.490883 102.940605,107.192696 
	C102.940605,107.192696 102.886436,107.614410 102.245895,107.877724 
	C80.951004,132.354523 74.478844,160.756073 80.380348,192.205292 
	C82.880768,205.530060 87.361694,218.200668 96.151749,229.579224 
	C96.316628,229.690109 96.481499,229.801010 96.684067,230.493988 
	C97.456955,231.332962 98.229843,232.171936 99.145569,233.636734 
	C99.596115,234.077438 100.046669,234.518143 100.576790,235.537323 
	C101.393639,236.341919 102.210495,237.146515 103.223976,238.595825 
	C106.166298,241.386017 109.108620,244.176224 112.250443,247.518768 
	C113.188446,248.182587 114.126450,248.846390 115.362473,250.076004 
	C115.903671,250.380310 116.444878,250.684616 117.245186,251.567383 
	C118.152260,252.074509 119.059326,252.581635 119.983101,253.006287 
	C119.983101,253.006287 119.912338,253.051849 120.114616,253.570847 
M375.384857,544.048706 
	C375.910614,544.005249 376.436340,543.961792 377.708130,544.281189 
	C380.198761,544.381958 382.689392,544.482727 385.823151,544.981750 
	C389.152893,544.845886 392.482605,544.710022 396.605530,544.831604 
	C397.400360,544.654175 398.195221,544.476807 399.778992,544.586975 
	C409.881409,541.997559 420.299042,540.247559 430.005249,536.603027 
	C441.732452,532.199707 452.067963,525.113220 460.519257,514.764954 
	C461.387817,513.620056 462.256348,512.475098 463.698456,511.099579 
	C464.081238,510.402802 464.464020,509.706024 465.169098,508.890198 
	C465.169098,508.890198 465.168274,508.546692 465.758759,508.253113 
	C466.425293,507.171417 467.091827,506.089722 468.275085,504.654388 
	C468.643036,503.922394 469.010986,503.190399 469.370483,502.437958 
	C469.370483,502.437958 469.380249,502.421448 469.923157,502.140381 
	C470.254089,501.420990 470.585022,500.701599 471.508362,499.645264 
	C484.907654,478.578827 489.837738,455.557648 486.544403,430.939240 
	C484.390045,414.834747 478.399384,400.170044 467.256653,387.219330 
	C466.515442,386.461273 465.774231,385.703186 464.869659,384.292664 
	C462.476318,381.890472 460.082977,379.488312 457.489136,376.471039 
	C452.806519,372.872131 448.287598,369.031342 443.405701,365.726776 
	C434.391205,359.624695 424.924957,354.372192 413.344910,352.175323 
	C412.874847,352.184692 412.404755,352.194061 411.438751,351.796631 
	C410.619080,351.670837 409.799408,351.545044 408.212891,351.041656 
	C404.126892,350.706451 400.040894,350.371216 395.231781,349.696320 
	C382.045441,349.119141 369.272369,351.099396 356.392395,355.889648 
	C356.268616,356.029266 356.144836,356.168854 355.250183,356.466858 
	C354.091400,356.004852 352.932587,355.542847 351.905334,354.141479 
	C351.883881,295.550690 351.864990,236.959885 351.836731,178.369095 
	C351.834076,172.885330 351.771912,167.401611 352.039734,161.182205 
	C352.175293,157.704071 352.322754,154.226349 352.442322,150.747665 
	C352.525726,148.321503 351.506500,146.600937 348.923615,147.401352 
	C341.410706,149.729568 333.980072,152.323090 326.176697,154.812622 
	C326.176697,154.812622 326.010284,155.109650 325.338196,155.151031 
	C324.075348,156.036530 322.812500,156.922028 321.187836,157.836166 
	C321.187836,157.836166 321.014557,158.155075 320.394073,158.197525 
	C319.793915,158.741333 319.193726,159.285141 318.213318,159.884430 
	C318.213318,159.884430 318.025146,160.219467 317.384216,160.319672 
	C316.218597,161.539001 315.053009,162.758316 313.336334,164.333435 
	C312.421204,165.022675 311.415070,165.619247 310.604492,166.414993 
	C297.366211,179.411331 292.768982,195.765198 292.753754,213.683304 
	C292.687317,291.803070 292.722443,369.922943 292.783112,448.042725 
	C292.794800,463.115295 296.283936,477.425690 303.245789,490.809021 
	C311.686768,507.035706 322.870789,520.831848 339.049591,530.682861 
	C339.486664,530.854492 339.923737,531.026123 340.677734,531.780579 
	C341.453186,532.139221 342.228668,532.497864 343.319183,533.362305 
	C344.040833,533.626953 344.762512,533.891602 345.862213,534.757202 
	C348.244019,535.755371 350.625793,536.753479 353.581329,538.256287 
	C354.308594,538.430969 355.035889,538.605652 356.250702,539.257751 
	C362.542206,540.742554 368.833679,542.227356 375.384857,544.048706 
z"/>
<path fill="#A48ED6" opacity="1.000000" stroke="none" 
	d="
M345.484161,534.156250 
	C344.762512,533.891602 344.040833,533.626953 343.039917,532.785889 
	C341.960724,531.872253 341.160767,531.535034 340.360809,531.197754 
	C339.923737,531.026123 339.486664,530.854492 339.002625,530.077576 
	C338.970428,528.980774 338.985199,528.489197 339.354431,527.924683 
	C340.249878,526.369568 341.382507,524.825867 341.235718,523.415283 
	C340.295074,514.375916 339.075806,505.365417 337.939972,496.346466 
	C337.857086,495.688293 337.686951,495.041473 337.595917,494.384003 
	C336.396149,485.718079 334.767029,477.084503 334.101257,468.377411 
	C332.790192,451.231079 332.035004,434.042542 331.011902,416.873749 
	C330.039795,400.560730 328.887115,384.257324 328.056763,367.937317 
	C327.216553,351.423920 326.696716,334.894379 325.980774,318.374298 
	C325.851868,315.399933 325.261963,312.440460 325.212677,309.468628 
	C325.039825,299.039764 325.385437,288.589111 324.845673,278.182434 
	C323.815002,258.311493 321.973816,238.478943 321.158508,218.602173 
	C320.800568,209.876099 322.151093,201.081787 322.693024,192.316406 
	C323.209045,183.970047 323.745331,175.624023 324.141541,167.271637 
	C324.287842,164.186630 324.060150,161.083908 324.194214,157.756485 
	C324.927032,156.719025 325.468658,155.914337 326.010284,155.109650 
	C326.010284,155.109650 326.176697,154.812622 326.731506,154.835449 
	C328.528290,154.572174 329.770233,154.286072 331.335114,154.161285 
	C332.771423,156.541794 334.751984,158.732040 334.827209,160.985886 
	C335.014404,166.593491 334.007690,172.233109 334.060272,177.854446 
	C334.242188,197.290756 334.422760,216.733536 335.109253,236.156006 
	C335.465240,246.227615 336.361237,256.346130 337.969696,266.288757 
	C339.554779,276.086700 341.680054,285.712646 341.138519,295.773865 
	C340.841034,301.301056 341.829620,306.890503 342.123474,312.457916 
	C342.787323,325.035614 343.399384,337.616150 343.991974,350.197418 
	C344.239990,355.463318 342.997742,361.292297 344.848969,365.893158 
	C349.543915,377.561249 346.765747,390.258484 350.977173,401.841064 
	C351.970459,404.572845 352.227570,407.649597 353.584381,410.155609 
	C356.239929,415.060242 356.858521,419.511139 354.107971,424.758667 
	C352.764374,427.322021 353.379883,430.912262 353.144745,434.377167 
	C353.031891,435.141083 352.882935,435.565521 352.456390,436.081970 
	C352.119659,437.117981 352.060486,438.061951 352.071594,439.383911 
	C351.973358,440.504120 351.804810,441.246307 351.335327,442.133606 
	C351.228485,444.190491 351.422516,446.102295 351.746765,448.413452 
	C351.920624,450.205750 351.964325,451.598694 351.769897,453.285461 
	C351.897522,463.253662 353.057037,472.566589 356.467316,481.944061 
	C362.037781,497.261414 360.228088,513.943726 362.938171,529.873474 
	C363.483246,533.077087 363.391266,536.327637 358.519226,536.302429 
	C357.604858,536.297668 356.682098,537.912720 355.763184,538.780273 
	C355.035889,538.605652 354.308594,538.430969 353.184143,537.682617 
	C350.352692,536.124756 347.918427,535.140503 345.484161,534.156250 
z"/>
<path fill="#AC8CD6" opacity="1.000000" stroke="none" 
	d="
M324.003021,157.989258 
	C324.060150,161.083908 324.287842,164.186630 324.141541,167.271637 
	C323.745331,175.624023 323.209045,183.970047 322.693024,192.316406 
	C322.151093,201.081787 320.800568,209.876099 321.158508,218.602173 
	C321.973816,238.478943 323.815002,258.311493 324.845673,278.182434 
	C325.385437,288.589111 325.039825,299.039764 325.212677,309.468628 
	C325.261963,312.440460 325.851868,315.399933 325.980774,318.374298 
	C326.696716,334.894379 327.216553,351.423920 328.056763,367.937317 
	C328.887115,384.257324 330.039795,400.560730 331.011902,416.873749 
	C332.035004,434.042542 332.790192,451.231079 334.101257,468.377411 
	C334.767029,477.084503 336.396149,485.718079 337.595917,494.384003 
	C337.686951,495.041473 337.857086,495.688293 337.939972,496.346466 
	C339.075806,505.365417 340.295074,514.375916 341.235718,523.415283 
	C341.382507,524.825867 340.249878,526.369568 339.042084,527.775818 
	C336.095459,525.291077 333.291382,523.188477 331.662415,520.399475 
	C329.393433,516.514771 327.569916,512.240662 326.330597,507.911407 
	C323.937439,499.551361 321.383392,491.134827 320.179382,482.561493 
	C318.478790,470.452118 317.720673,458.193146 316.955933,445.973328 
	C315.489197,422.536011 314.124023,399.089203 313.077759,375.630219 
	C312.606262,365.058167 313.117615,354.445862 312.976959,343.854584 
	C312.736298,325.733856 312.343506,307.615112 311.995544,289.495880 
	C311.731873,275.766571 311.396362,262.038483 311.176788,248.308533 
	C311.071075,241.698212 310.790192,235.059616 311.239014,228.478195 
	C312.079895,216.146973 314.944000,204.039307 314.175171,191.485657 
	C313.618134,182.390366 314.679596,173.195953 315.285461,163.872772 
	C316.376129,162.539719 317.200653,161.379593 318.025146,160.219467 
	C318.025146,160.219467 318.213318,159.884430 318.735474,159.864807 
	C319.843292,159.281815 320.428925,158.718445 321.014557,158.155075 
	C321.014557,158.155075 321.187836,157.836166 321.775116,157.881989 
	C322.909271,157.948303 323.456146,157.968781 324.003021,157.989258 
z"/>
<path fill="#9C8FD3" opacity="1.000000" stroke="none" 
	d="
M353.108612,434.037689 
	C353.379883,430.912262 352.764374,427.322021 354.107971,424.758667 
	C356.858521,419.511139 356.239929,415.060242 353.584381,410.155609 
	C352.227570,407.649597 351.970459,404.572845 350.977173,401.841064 
	C346.765747,390.258484 349.543915,377.561249 344.848969,365.893158 
	C342.997742,361.292297 344.239990,355.463318 343.991974,350.197418 
	C343.399384,337.616150 342.787323,325.035614 342.123474,312.457916 
	C341.829620,306.890503 340.841034,301.301056 341.138519,295.773865 
	C341.680054,285.712646 339.554779,276.086700 337.969696,266.288757 
	C336.361237,256.346130 335.465240,246.227615 335.109253,236.156006 
	C334.422760,216.733536 334.242188,197.290756 334.060272,177.854446 
	C334.007690,172.233109 335.014404,166.593491 334.827209,160.985886 
	C334.751984,158.732040 332.771423,156.541794 331.603210,153.925430 
	C336.328400,152.109421 341.085815,150.607773 345.895721,149.299026 
	C349.474762,148.325226 351.185059,149.647964 351.045746,153.579071 
	C350.947632,156.347015 351.484222,159.137466 351.737427,161.917862 
	C351.771912,167.401611 351.834076,172.885330 351.836731,178.369095 
	C351.864990,236.959885 351.883881,295.550690 351.661713,354.872192 
	C352.423370,359.289642 354.098328,358.607208 356.021027,356.308472 
	C356.144836,356.168854 356.268616,356.029266 356.914734,356.104126 
	C359.957428,355.878693 362.477783,355.438751 365.230011,355.245972 
	C367.439606,357.574432 370.333771,359.328613 371.216187,361.800873 
	C373.492462,368.178314 375.397827,374.787506 376.500763,381.461212 
	C378.178772,391.614807 381.599274,402.036987 374.715210,412.062653 
	C364.144135,416.412109 357.508118,424.128998 353.108612,434.037689 
z"/>
<path fill="#9AC5BB" opacity="1.000000" stroke="none" 
	d="
M232.005417,72.512970 
	C241.363434,72.436134 250.721451,72.359299 260.507629,72.739655 
	C258.486359,77.319427 253.332428,80.299324 255.378891,86.342560 
	C255.440842,86.525452 254.904205,86.848114 254.849762,87.143082 
	C254.297134,90.138023 253.372086,93.138313 253.354370,96.141838 
	C253.321548,101.703506 253.634750,107.286888 254.170731,112.825722 
	C254.567108,116.921852 255.595459,120.953819 256.234192,125.031303 
	C256.429718,126.279564 256.311340,127.585564 256.262177,128.862259 
	C255.860245,139.299271 255.581360,149.743713 254.978867,160.169373 
	C254.548401,167.618225 253.556046,175.033463 253.054031,182.479843 
	C252.815369,186.019882 253.243866,189.599564 253.179596,193.157837 
	C253.058762,199.846329 252.795059,206.532181 252.600159,213.219406 
	C252.518967,216.005432 252.424744,218.791885 252.403671,221.578644 
	C252.380035,224.705536 252.229736,227.854263 252.554550,230.949417 
	C252.679169,232.136841 253.963257,233.202560 254.719025,234.323730 
	C249.134171,239.882309 243.549301,245.440872 237.247559,250.919128 
	C236.060242,250.196045 235.242371,249.588776 235.172546,248.905121 
	C234.383133,241.173660 233.141647,233.432083 233.119995,225.690155 
	C233.073959,209.234512 233.709274,192.777603 233.999374,176.320053 
	C234.101257,170.540527 233.936279,164.756317 234.036972,158.976746 
	C234.091431,155.850616 235.060242,152.630157 234.570068,149.622818 
	C231.535767,131.006561 227.383102,112.566986 228.869934,93.437820 
	C229.421524,86.341293 228.750580,79.168007 232.005417,72.512970 
z"/>
<path fill="#A5C4B7" opacity="1.000000" stroke="none" 
	d="
M231.555450,72.392052 
	C228.750580,79.168007 229.421524,86.341293 228.869934,93.437820 
	C227.383102,112.566986 231.535767,131.006561 234.570068,149.622818 
	C235.060242,152.630157 234.091431,155.850616 234.036972,158.976746 
	C233.936279,164.756317 234.101257,170.540527 233.999374,176.320053 
	C233.709274,192.777603 233.073959,209.234512 233.119995,225.690155 
	C233.141647,233.432083 234.383133,241.173660 235.172546,248.905121 
	C235.242371,249.588776 236.060242,250.196045 236.921326,250.980560 
	C231.554779,254.657059 225.797607,258.191803 219.591202,261.302948 
	C218.428146,257.335388 217.512360,253.817734 217.047104,250.241455 
	C216.322144,244.668777 215.824142,239.062424 215.388992,233.457993 
	C215.185211,230.833313 215.386093,228.179291 215.346405,225.539429 
	C215.184860,214.791702 215.160385,204.036697 214.645737,193.305435 
	C214.572586,191.780029 212.079391,190.370667 210.753876,188.532318 
	C215.654510,178.746033 215.129913,168.930099 213.374756,158.974731 
	C218.120712,157.814072 217.863419,154.470154 217.518997,151.070175 
	C217.003052,145.976974 216.291183,140.892334 216.044220,135.785583 
	C215.563721,125.850304 215.282059,115.903702 215.060059,105.958618 
	C214.986359,102.656929 215.126740,99.316643 215.554382,96.044327 
	C216.581665,88.183510 217.837082,80.352501 219.000443,72.509460 
	C223.035461,72.430023 227.070465,72.350578 231.555450,72.392052 
z"/>
<path fill="#DEC4A9" opacity="1.000000" stroke="none" 
	d="
M124.979462,88.385765 
	C125.097565,88.249886 125.215668,88.114006 125.959915,87.919449 
	C131.026871,85.868195 135.467682,83.875610 140.219101,82.077042 
	C141.674789,84.005127 143.698685,85.690018 143.799026,87.482590 
	C144.091690,92.710136 143.503937,97.979889 143.465408,103.234589 
	C143.395340,112.788437 142.635757,122.446457 143.795425,131.860001 
	C144.515640,137.706451 142.937042,142.288895 141.357208,147.473282 
	C139.748642,152.751953 136.248871,158.064697 139.154999,164.460388 
	C139.034164,166.239502 138.866516,167.607178 138.419754,169.065933 
	C138.327820,170.113297 138.514999,171.069611 138.817459,172.445831 
	C138.987122,174.892319 139.041489,176.918884 138.864044,179.195160 
	C139.483551,181.643692 140.334900,183.842545 141.422745,186.253662 
	C142.156387,187.622116 142.653534,188.778259 142.907364,190.182281 
	C143.442993,197.531113 144.929626,204.639984 144.850571,211.731400 
	C144.695679,225.627045 143.551407,239.508728 143.048309,253.404572 
	C142.773438,260.996185 139.719818,263.029053 132.618164,259.775146 
	C129.321350,258.264557 126.077759,256.637817 122.810036,255.063751 
	C122.644035,255.041199 122.478035,255.018646 122.069214,254.521912 
	C121.188370,253.715759 120.550354,253.383804 119.912338,253.051849 
	C119.912338,253.051849 119.983101,253.006287 119.878662,252.775757 
	C119.517860,252.029297 119.261505,251.513382 119.411469,250.992584 
	C121.201508,249.733170 123.681183,248.571548 123.796669,247.209488 
	C124.775513,235.664871 126.228928,224.045166 125.738579,212.524673 
	C125.275360,201.641632 124.752754,190.794907 124.948357,179.895081 
	C125.127846,169.892761 124.846802,159.950027 125.675438,149.889160 
	C127.111641,132.451859 126.602493,114.857544 127.042328,97.332420 
	C127.137718,93.531403 125.753746,91.668213 122.057373,91.652008 
	C123.149353,90.397919 124.064407,89.391838 124.979462,88.385765 
z"/>
<path fill="#6D9BD6" opacity="1.000000" stroke="none" 
	d="
M457.689606,377.086151 
	C460.082977,379.488312 462.476318,381.890472 464.938965,384.998260 
	C465.006561,386.462738 465.004913,387.221649 464.697937,388.191925 
	C464.038788,390.083649 463.273163,391.795441 463.398621,393.439178 
	C464.152588,403.314301 465.249878,413.163910 465.953217,423.041962 
	C466.433655,429.789673 466.662506,436.570129 466.648529,443.335205 
	C466.616455,458.844818 466.373810,474.354065 466.197998,489.863220 
	C466.172394,492.118652 466.558990,494.551666 465.851654,496.588898 
	C464.554199,500.325592 465.885956,501.894043 469.378937,502.458374 
	C469.010986,503.190399 468.643036,503.922394 467.680450,504.913818 
	C466.446625,506.297699 465.807434,507.422180 465.168274,508.546692 
	C465.168274,508.546692 465.169098,508.890198 464.703674,509.047729 
	C463.867157,509.913574 463.496002,510.621887 463.124878,511.330200 
	C462.256348,512.475098 461.387817,513.620056 459.888214,514.936279 
	C457.754608,516.318604 456.341888,517.668091 454.731476,518.712891 
	C450.869995,521.218079 446.915649,523.580139 443.068848,525.610718 
	C448.202454,509.544861 444.924194,493.207092 446.850067,477.261536 
	C447.470856,472.121826 446.018005,466.767181 446.073029,461.516724 
	C446.219269,447.559692 447.000397,433.602936 446.877563,419.651794 
	C446.802551,411.129303 445.554352,402.614655 444.775879,394.101715 
	C444.234772,388.184692 443.286285,382.282715 443.168030,376.361053 
	C443.126099,374.260376 444.999207,372.121460 446.340790,370.062256 
	C450.352234,372.445068 454.020935,374.765594 457.689606,377.086151 
z"/>
<path fill="#42C4CF" opacity="1.000000" stroke="none" 
	d="
M480.071075,132.973816 
	C468.352051,133.018875 456.633026,133.063919 444.447266,132.594391 
	C443.274628,131.028488 442.785278,129.683792 441.826019,128.975525 
	C437.145599,125.519623 435.914948,121.170341 436.892822,115.462257 
	C438.034882,108.796104 438.509521,101.996468 438.946228,95.233597 
	C439.459930,87.279091 440.745392,79.725281 447.398163,73.995445 
	C448.862183,73.993736 449.926788,73.992920 451.460571,73.996246 
	C458.750122,73.998405 465.572266,74.080643 472.389771,73.939537 
	C474.264679,73.900734 476.125793,73.194626 477.993225,72.794716 
	C480.701172,72.688683 483.409119,72.582649 486.683411,72.867592 
	C487.651642,73.780159 488.440674,74.336945 488.396942,74.818008 
	C487.806030,81.316422 486.619080,87.797302 486.524414,94.296288 
	C486.344513,106.653671 483.367737,119.177620 488.145142,131.349350 
	C485.451172,131.891357 482.761108,132.432587 480.071075,132.973816 
z"/>
<path fill="#EAC6A5" opacity="1.000000" stroke="none" 
	d="
M121.880455,91.900024 
	C125.753746,91.668213 127.137718,93.531403 127.042328,97.332420 
	C126.602493,114.857544 127.111641,132.451859 125.675438,149.889160 
	C124.846802,159.950027 125.127846,169.892761 124.948357,179.895081 
	C124.752754,190.794907 125.275360,201.641632 125.738579,212.524673 
	C126.228928,224.045166 124.775513,235.664871 123.796669,247.209488 
	C123.681183,248.571548 121.201508,249.733170 119.075020,250.980347 
	C117.883530,250.978271 117.434807,250.983597 116.986084,250.988922 
	C116.444878,250.684616 115.903671,250.380310 115.134430,249.498093 
	C113.954567,248.268921 113.002754,247.617676 112.050949,246.966431 
	C109.108620,244.176224 106.166298,241.386017 103.088776,237.970230 
	C102.134789,236.549362 101.316002,235.754105 100.497223,234.958847 
	C100.046669,234.518143 99.596115,234.077438 99.045837,233.005188 
	C98.640701,231.579483 98.335304,230.785309 98.408096,230.010468 
	C100.812279,230.611664 102.838272,231.193542 105.783073,232.039291 
	C106.219284,228.232056 106.966522,224.865051 106.920242,221.509003 
	C106.793053,212.283615 105.905708,203.054108 106.093643,193.842026 
	C106.485085,174.654160 107.368149,155.476196 108.083359,136.295441 
	C108.119904,135.315369 108.467514,134.345169 108.686012,133.373901 
	C110.729858,124.288712 111.889366,115.153198 110.520729,105.650482 
	C108.791962,105.751755 107.325790,105.837646 106.038666,105.639999 
	C108.805992,102.357254 111.394272,99.358055 113.982559,96.358856 
	C114.379532,95.907280 114.776505,95.455696 115.785217,94.926987 
	C117.265106,94.047081 118.133232,93.244308 119.001366,92.441536 
	C119.100670,92.296051 119.199974,92.150558 119.897804,91.972572 
	C120.957710,91.926720 121.419083,91.913368 121.880455,91.900024 
z"/>
<path fill="#93C5BA" opacity="1.000000" stroke="none" 
	d="
M254.999588,234.183105 
	C253.963257,233.202560 252.679169,232.136841 252.554550,230.949417 
	C252.229736,227.854263 252.380035,224.705536 252.403671,221.578644 
	C252.424744,218.791885 252.518967,216.005432 252.600159,213.219406 
	C252.795059,206.532181 253.058762,199.846329 253.179596,193.157837 
	C253.243866,189.599564 252.815369,186.019882 253.054031,182.479843 
	C253.556046,175.033463 254.548401,167.618225 254.978867,160.169373 
	C255.581360,149.743713 255.860245,139.299271 256.262177,128.862259 
	C256.311340,127.585564 256.429718,126.279564 256.234192,125.031303 
	C255.595459,120.953819 254.567108,116.921852 254.170731,112.825722 
	C253.634750,107.286888 253.321548,101.703506 253.354370,96.141838 
	C253.372086,93.138313 254.297134,90.138023 254.849762,87.143082 
	C254.904205,86.848114 255.440842,86.525452 255.378891,86.342560 
	C253.332428,80.299324 258.486359,77.319427 260.959686,72.864418 
	C267.016205,72.454155 273.048798,72.376335 279.507721,72.759407 
	C273.849640,82.291481 272.799683,92.964333 272.263031,103.181061 
	C271.090332,125.506691 271.374969,147.907501 270.963409,170.275726 
	C270.887390,174.408691 270.351715,178.534164 270.000885,182.660767 
	C269.762878,185.460098 270.805542,187.162796 273.802643,187.277344 
	C270.794434,204.119675 267.315582,220.775604 254.999588,234.183105 
z"/>
<path fill="#F4C89F" opacity="1.000000" stroke="none" 
	d="
M105.859612,105.923523 
	C107.325790,105.837646 108.791962,105.751755 110.520729,105.650482 
	C111.889366,115.153198 110.729858,124.288712 108.686012,133.373901 
	C108.467514,134.345169 108.119904,135.315369 108.083359,136.295441 
	C107.368149,155.476196 106.485085,174.654160 106.093643,193.842026 
	C105.905708,203.054108 106.793053,212.283615 106.920242,221.509003 
	C106.966522,224.865051 106.219284,228.232056 105.783073,232.039291 
	C102.838272,231.193542 100.812279,230.611664 98.177719,229.987778 
	C97.262932,229.897354 96.955338,229.886063 96.646378,229.911896 
	C96.481499,229.801010 96.316628,229.690109 96.089241,228.919785 
	C95.767258,227.481476 95.668434,226.593369 95.224243,225.940094 
	C88.391212,215.890778 84.307167,204.733353 81.992294,192.896927 
	C76.473068,164.676071 80.710968,138.475739 98.250282,115.040062 
	C99.992500,112.712143 101.350250,110.096512 102.886444,107.614410 
	C102.886436,107.614410 102.940605,107.192696 103.404602,107.066956 
	C104.532265,106.601990 105.195938,106.262756 105.859612,105.923523 
z"/>
<path fill="#8796D7" opacity="1.000000" stroke="none" 
	d="
M374.995880,411.848755 
	C381.599274,402.036987 378.178772,391.614807 376.500763,381.461212 
	C375.397827,374.787506 373.492462,368.178314 371.216187,361.800873 
	C370.333771,359.328613 367.439606,357.574432 365.522949,355.014771 
	C369.743835,353.686920 373.874664,352.633362 378.070465,352.036926 
	C384.006805,351.193054 389.991089,350.686646 395.954895,350.036011 
	C400.040894,350.371216 404.126892,350.706451 408.687256,351.491699 
	C410.085968,352.028992 411.010315,352.116211 411.934692,352.203430 
	C412.404755,352.194061 412.874847,352.184692 413.804810,352.641663 
	C417.777679,354.625854 418.511993,357.218903 417.637390,360.794373 
	C417.182281,362.654968 417.243225,364.732635 417.492889,366.657532 
	C418.213348,372.213074 419.637939,377.718170 419.896332,383.284363 
	C420.430817,394.797943 417.944397,405.944183 414.233154,416.783630 
	C401.868500,407.432831 388.689178,407.566589 374.995880,411.848755 
z"/>
<path fill="#AD87D0" opacity="1.000000" stroke="none" 
	d="
M315.019318,164.045731 
	C314.679596,173.195953 313.618134,182.390366 314.175171,191.485657 
	C314.944000,204.039307 312.079895,216.146973 311.239014,228.478195 
	C310.790192,235.059616 311.071075,241.698212 311.176788,248.308533 
	C311.396362,262.038483 311.731873,275.766571 311.995544,289.495880 
	C312.343506,307.615112 312.736298,325.733856 312.976959,343.854584 
	C313.117615,354.445862 312.606262,365.058167 313.077759,375.630219 
	C314.124023,399.089203 315.489197,422.536011 316.955933,445.973328 
	C317.720673,458.193146 318.478790,470.452118 320.179382,482.561493 
	C321.383392,491.134827 323.937439,499.551361 326.330597,507.911407 
	C327.569916,512.240662 329.393433,516.514771 331.662415,520.399475 
	C333.291382,523.188477 336.095459,525.291077 338.687683,527.848755 
	C338.985199,528.489197 338.970428,528.980774 338.931946,529.840088 
	C322.870789,520.831848 311.686768,507.035706 303.245789,490.809021 
	C296.283936,477.425690 292.794800,463.115295 292.783112,448.042725 
	C292.722443,369.922943 292.687317,291.803070 292.753754,213.683304 
	C292.768982,195.765198 297.366211,179.411331 310.604492,166.414993 
	C311.415070,165.619247 312.421204,165.022675 313.894653,164.176178 
	C314.641724,164.027863 314.830505,164.036804 315.019318,164.045731 
M306.768951,204.258453 
	C307.348328,199.499756 308.054016,194.751938 308.465790,189.978790 
	C308.776520,186.376770 311.095642,181.395798 306.848602,179.913132 
	C305.234131,179.349533 301.460541,184.945755 298.693756,187.756851 
	C298.480621,187.973404 298.386505,188.358978 298.340668,188.680740 
	C297.219116,196.552170 295.171539,204.422714 295.147186,212.299164 
	C294.906128,290.244568 294.943512,368.191193 295.092407,446.137054 
	C295.106598,453.562561 295.664337,461.153778 297.289612,468.370850 
	C299.802063,479.527588 303.513458,490.418915 312.253754,498.599640 
	C313.314575,499.592560 315.029114,499.886993 316.440704,500.505157 
	C316.955475,499.185516 317.896729,497.864716 317.893005,496.546539 
	C317.886047,494.080414 317.221863,491.624634 317.023315,489.149139 
	C316.210541,479.013855 315.353638,468.879822 314.741730,458.731537 
	C314.285828,451.170868 314.826630,443.491760 313.705078,436.049011 
	C312.888184,430.627747 313.322510,425.435425 313.218628,420.126190 
	C312.852814,401.438629 310.857513,382.789795 310.094025,364.101227 
	C309.343170,345.721375 309.362488,327.310516 308.999817,308.914154 
	C308.693024,293.354706 308.347748,277.795898 307.941132,262.238831 
	C307.903198,260.787567 307.193329,259.366791 306.979218,257.904938 
	C305.959137,250.939514 304.867493,243.979492 304.106415,236.984329 
	C303.880798,234.910980 304.793274,232.739105 304.937592,230.595764 
	C305.510254,222.090729 305.985229,213.579102 306.768951,204.258453 
z"/>
<path fill="#8796D7" opacity="1.000000" stroke="none" 
	d="
M398.990051,544.299377 
	C398.195221,544.476807 397.400360,544.654175 395.870605,544.530762 
	C391.817139,544.347778 388.498596,544.465637 385.180023,544.583496 
	C382.689392,544.482727 380.198761,544.381958 377.361267,543.893921 
	C377.014435,543.506592 377.052124,543.093262 377.419250,543.054321 
	C381.840668,540.947144 387.077881,540.569580 387.097198,533.846313 
	C387.144958,517.228760 386.409607,500.717194 383.447876,484.317932 
	C388.290588,484.201080 392.674591,484.172638 397.222473,484.302734 
	C397.931396,484.145203 398.476471,483.829102 399.375488,483.328796 
	C403.610565,481.689667 407.491730,480.234772 411.737030,478.786285 
	C412.726349,478.175018 413.351471,477.557373 414.075409,476.700928 
	C414.617828,476.223297 415.061432,475.984406 415.881134,475.767212 
	C418.087921,474.369049 419.875885,472.888947 421.763824,471.549774 
	C423.101837,470.600647 424.574982,469.841980 425.989258,469.466583 
	C426.322571,485.289398 426.654388,500.643890 426.750366,516.269287 
	C426.417206,519.196594 426.356659,521.855042 426.210236,524.508789 
	C426.105255,526.411377 426.615112,528.997559 425.587494,530.084595 
	C421.630280,534.270630 418.654388,539.748535 412.184021,541.009277 
	C407.741028,541.875061 403.384979,543.186951 398.990051,544.299377 
z"/>
<path fill="#72C5C3" opacity="1.000000" stroke="none" 
	d="
M361.990967,132.492783 
	C353.918457,132.620316 345.845978,132.747849 337.032776,132.597198 
	C334.529175,132.604736 332.766296,132.890472 331.003387,133.176224 
	C328.029449,133.680069 325.055511,134.183914 321.533386,134.302277 
	C319.407654,132.420227 316.699188,131.072952 316.478058,129.397385 
	C315.948059,125.381935 316.544830,121.209824 316.770813,117.105560 
	C316.906006,114.650078 317.613129,112.158379 317.352631,109.760132 
	C315.976929,97.095123 315.615784,84.574951 321.025421,72.598389 
	C334.713928,72.517227 348.402405,72.436066 362.513550,72.819183 
	C362.489319,74.145813 362.267731,75.360405 361.559174,75.813568 
	C356.820038,78.844498 357.018860,82.900742 357.689728,87.948586 
	C358.384857,93.179344 357.451050,98.660690 356.945618,104.005577 
	C356.574310,107.932610 354.751343,111.981209 355.364746,115.678764 
	C356.180328,120.595032 353.195770,127.487091 360.945160,129.889969 
	C361.508606,130.064682 361.652161,131.593521 361.990967,132.492783 
z"/>
<path fill="#C2C4B0" opacity="1.000000" stroke="none" 
	d="
M194.960251,269.327026 
	C194.220718,269.536987 193.481201,269.746948 192.115204,269.713074 
	C190.313919,269.835754 189.139130,270.202271 187.964325,270.568787 
	C186.578339,270.739838 185.192352,270.910889 183.055145,270.763855 
	C177.549530,270.586273 172.795120,270.726776 168.040726,270.867279 
	C166.294586,270.806274 164.548431,270.745300 162.264603,270.241486 
	C160.838806,269.506989 159.950714,269.215302 159.163940,268.586578 
	C160.146408,266.446594 161.647476,264.693787 161.797974,262.831818 
	C162.354904,255.942017 162.119858,248.980743 162.822861,242.111877 
	C163.983032,230.776337 167.526749,219.616058 165.368683,208.031845 
	C166.923828,208.317703 168.100525,208.618958 169.486847,209.133316 
	C171.031479,209.316895 172.366501,209.287369 174.171143,209.225433 
	C176.521210,209.196655 178.401642,209.200287 180.502869,209.389862 
	C182.114166,209.291031 183.504654,209.006271 185.268494,208.559906 
	C186.177628,208.329544 186.713409,208.260773 187.479279,208.347015 
	C189.767929,207.531738 191.826492,206.561447 194.160416,205.336761 
	C194.905533,204.927872 195.375259,204.773376 196.066162,204.943695 
	C197.190247,209.037598 198.812729,212.797546 198.860672,216.577469 
	C199.002319,227.740646 198.294830,238.913345 198.374374,250.079086 
	C198.417465,256.129150 199.386795,262.172607 199.938293,268.219055 
	C199.515152,268.436188 199.092010,268.653351 198.106934,268.656067 
	C196.683411,268.736755 195.821823,269.031891 194.960251,269.327026 
z"/>
<path fill="#AEC3B2" opacity="1.000000" stroke="none" 
	d="
M218.546265,72.388214 
	C217.837082,80.352501 216.581665,88.183510 215.554382,96.044327 
	C215.126740,99.316643 214.986359,102.656929 215.060059,105.958618 
	C215.282059,115.903702 215.563721,125.850304 216.044220,135.785583 
	C216.291183,140.892334 217.003052,145.976974 217.518997,151.070175 
	C217.863419,154.470154 218.120712,157.814072 213.120422,158.730621 
	C208.908768,153.225967 206.205536,146.910019 201.515060,142.944687 
	C196.281250,138.519989 189.242264,136.230576 183.245148,132.774063 
	C188.346252,130.722290 188.779175,126.714386 187.613831,122.712563 
	C184.927490,113.487541 187.011978,104.431374 187.526489,95.245209 
	C187.948639,87.708206 190.265045,79.971321 186.983093,72.474258 
	C197.352753,72.405159 207.722412,72.336060 218.546265,72.388214 
z"/>
<path fill="#8AC3BC" opacity="1.000000" stroke="none" 
	d="
M274.024475,187.024872 
	C270.805542,187.162796 269.762878,185.460098 270.000885,182.660767 
	C270.351715,178.534164 270.887390,174.408691 270.963409,170.275726 
	C271.374969,147.907501 271.090332,125.506691 272.263031,103.181061 
	C272.799683,92.964333 273.849640,82.291481 279.958649,72.886963 
	C286.350250,72.471352 292.717194,72.389076 299.509033,72.772263 
	C295.732635,80.563576 293.134857,88.384232 294.139282,96.879036 
	C295.773560,110.700089 296.105652,124.328026 290.334564,137.406876 
	C288.170471,142.311417 288.427368,146.376495 293.830811,148.934631 
	C283.860779,159.765747 277.686615,172.561554 274.024475,187.024872 
z"/>
<path fill="#CFC3AB" opacity="1.000000" stroke="none" 
	d="
M139.108185,164.048950 
	C136.248871,158.064697 139.748642,152.751953 141.357208,147.473282 
	C142.937042,142.288895 144.515640,137.706451 143.795425,131.860001 
	C142.635757,122.446457 143.395340,112.788437 143.465408,103.234589 
	C143.503937,97.979889 144.091690,92.710136 143.799026,87.482590 
	C143.698685,85.690018 141.674789,84.005127 140.361221,81.886147 
	C140.947403,80.990227 141.702072,80.479210 142.456741,79.968201 
	C150.521088,75.874954 159.150436,73.698792 168.558197,72.909592 
	C171.796814,76.612892 174.053604,79.299446 173.439484,84.587044 
	C172.111206,96.023575 171.955948,107.668449 172.333206,119.194977 
	C172.481262,123.718582 174.054230,128.141907 171.609497,132.769852 
	C166.206345,134.910690 160.860565,136.321304 156.186325,138.933548 
	C146.455261,144.371857 141.912292,153.705475 139.108185,164.048950 
z"/>
<path fill="#609DD2" opacity="1.000000" stroke="none" 
	d="
M469.374695,502.448181 
	C465.885956,501.894043 464.554199,500.325592 465.851654,496.588898 
	C466.558990,494.551666 466.172394,492.118652 466.197998,489.863220 
	C466.373810,474.354065 466.616455,458.844818 466.648529,443.335205 
	C466.662506,436.570129 466.433655,429.789673 465.953217,423.041962 
	C465.249878,413.163910 464.152588,403.314301 463.398621,393.439178 
	C463.273163,391.795441 464.038788,390.083649 465.099670,388.185944 
	C466.341553,387.931732 466.876373,387.894897 467.411224,387.858063 
	C478.399384,400.170044 484.390045,414.834747 486.544403,430.939240 
	C489.837738,455.557648 484.907654,478.578827 470.902100,499.921387 
	C469.990662,500.938812 469.685455,501.680145 469.380249,502.421448 
	C469.380249,502.421448 469.370483,502.437958 469.374695,502.448181 
z"/>
<path fill="#68C4C5" opacity="1.000000" stroke="none" 
	d="
M362.376923,132.652252 
	C361.652161,131.593521 361.508606,130.064682 360.945160,129.889969 
	C353.195770,127.487091 356.180328,120.595032 355.364746,115.678764 
	C354.751343,111.981209 356.574310,107.932610 356.945618,104.005577 
	C357.451050,98.660690 358.384857,93.179344 357.689728,87.948586 
	C357.018860,82.900742 356.820038,78.844498 361.559174,75.813568 
	C362.267731,75.360405 362.489319,74.145813 362.961609,72.958801 
	C372.010834,72.549469 381.034668,72.464813 390.484009,72.835251 
	C387.865448,77.216362 388.018982,81.605881 387.606598,86.421211 
	C386.594360,98.240929 384.119354,109.953552 384.884460,121.906158 
	C385.046967,124.445145 386.219696,126.951996 387.133850,129.396286 
	C387.575104,130.576172 388.496460,131.576492 389.200439,132.658127 
	C380.387909,132.709335 371.575409,132.760529 362.376923,132.652252 
z"/>
<path fill="#9C8FD3" opacity="1.000000" stroke="none" 
	d="
M382.989197,484.406281 
	C386.409607,500.717194 387.144958,517.228760 387.097198,533.846313 
	C387.077881,540.569580 381.840668,540.947144 377.153687,543.045166 
	C376.055725,543.287354 375.590454,543.499756 375.125183,543.712158 
	C368.833679,542.227356 362.542206,540.742554 356.006958,539.019043 
	C356.682098,537.912720 357.604858,536.297668 358.519226,536.302429 
	C363.391266,536.327637 363.483246,533.077087 362.938171,529.873474 
	C360.228088,513.943726 362.037781,497.261414 356.467316,481.944061 
	C353.057037,472.566589 351.897522,463.253662 351.992554,453.584320 
	C356.100586,470.333435 365.948822,480.933136 382.989197,484.406281 
z"/>
<path fill="#5BB9BD" opacity="1.000000" stroke="none" 
	d="
M389.603943,132.816132 
	C388.496460,131.576492 387.575104,130.576172 387.133850,129.396286 
	C386.219696,126.951996 385.046967,124.445145 384.884460,121.906158 
	C384.119354,109.953552 386.594360,98.240929 387.606598,86.421211 
	C388.018982,81.605881 387.865448,77.216362 390.932983,72.963234 
	C400.347076,72.548149 409.737671,72.460182 419.547241,72.842224 
	C414.096252,80.698784 412.891388,89.677711 411.957031,98.541084 
	C411.117004,106.510033 411.094635,114.587677 411.116058,122.616287 
	C411.128387,127.235626 415.268768,130.884598 419.882019,130.976852 
	C424.523163,131.069641 429.173950,130.869873 433.806427,131.092407 
	C435.227753,131.160675 436.602570,132.197525 437.998688,132.790848 
	C426.129242,132.909729 414.259949,133.053665 402.390228,133.133850 
	C398.263184,133.161743 394.135101,133.031921 389.603943,132.816132 
z"/>
<path fill="#82C3BE" opacity="1.000000" stroke="none" 
	d="
M294.157410,148.828094 
	C288.427368,146.376495 288.170471,142.311417 290.334564,137.406876 
	C296.105652,124.328026 295.773560,110.700089 294.139282,96.879036 
	C293.134857,88.384232 295.732635,80.563576 299.959351,72.902969 
	C306.695862,72.488785 313.406952,72.409355 320.571716,72.464157 
	C315.615784,84.574951 315.976929,97.095123 317.352631,109.760132 
	C317.613129,112.158379 316.906006,114.650078 316.770813,117.105560 
	C316.544830,121.209824 315.948059,125.381935 316.478058,129.397385 
	C316.699188,131.072952 319.407654,132.420227 321.080963,134.300705 
	C311.366364,137.627777 302.172302,141.742996 294.157410,148.828094 
z"/>
<path fill="#4FC3CB" opacity="1.000000" stroke="none" 
	d="
M438.410767,132.942566 
	C436.602570,132.197525 435.227753,131.160675 433.806427,131.092407 
	C429.173950,130.869873 424.523163,131.069641 419.882019,130.976852 
	C415.268768,130.884598 411.128387,127.235626 411.116058,122.616287 
	C411.094635,114.587677 411.117004,106.510033 411.957031,98.541084 
	C412.891388,89.677711 414.096252,80.698784 419.995178,72.990234 
	C422.719421,72.583878 425.414673,72.499519 428.658081,72.776779 
	C430.146851,72.989609 431.087463,72.840820 432.028076,72.692032 
	C434.065826,72.605957 436.103607,72.519875 438.647156,72.761368 
	C439.775848,72.962448 440.398712,72.835945 441.021606,72.709450 
	C441.769226,72.621033 442.516876,72.532616 443.773438,72.825348 
	C445.187836,73.469772 446.093262,73.733055 446.998718,73.996338 
	C440.745392,79.725281 439.459930,87.279091 438.946228,95.233597 
	C438.509521,101.996468 438.034882,108.796104 436.892822,115.462257 
	C435.914948,121.170341 437.145599,125.519623 441.826019,128.975525 
	C442.785278,129.683792 443.274628,131.028488 444.006226,132.429260 
	C442.295532,132.883881 440.559174,132.989090 438.410767,132.942566 
z"/>
<path fill="#CFC3AB" opacity="1.000000" stroke="none" 
	d="
M164.990234,208.047256 
	C167.526749,219.616058 163.983032,230.776337 162.822861,242.111877 
	C162.119858,248.980743 162.354904,255.942017 161.797974,262.831818 
	C161.647476,264.693787 160.146408,266.446594 159.137329,268.781525 
	C159.009384,269.313538 159.031250,269.704865 159.031250,269.704865 
	C146.028061,267.655579 134.048187,262.989227 122.960022,255.361298 
	C126.077759,256.637817 129.321350,258.264557 132.618164,259.775146 
	C139.719818,263.029053 142.773438,260.996185 143.048309,253.404572 
	C143.551407,239.508728 144.695679,225.627045 144.850571,211.731400 
	C144.929626,204.639984 143.442993,197.531113 143.190430,190.357697 
	C149.227371,198.098984 155.723816,204.731918 164.990234,208.047256 
z"/>
<path fill="#AEC3B2" opacity="1.000000" stroke="none" 
	d="
M200.301361,268.290466 
	C199.386795,262.172607 198.417465,256.129150 198.374374,250.079086 
	C198.294830,238.913345 199.002319,227.740646 198.860672,216.577469 
	C198.812729,212.797546 197.190247,209.037598 196.241776,204.668976 
	C201.032898,199.015472 205.869583,193.961517 210.706268,188.907593 
	C212.079391,190.370667 214.572586,191.780029 214.645737,193.305435 
	C215.160385,204.036697 215.184860,214.791702 215.346405,225.539429 
	C215.386093,228.179291 215.185211,230.833313 215.388992,233.457993 
	C215.824142,239.062424 216.322144,244.668777 217.047104,250.241455 
	C217.512360,253.817734 218.428146,257.335388 219.206482,261.325378 
	C213.068802,263.968231 206.866608,266.165039 200.301361,268.290466 
z"/>
<path fill="#7695CF" opacity="1.000000" stroke="none" 
	d="
M425.987793,468.998291 
	C424.574982,469.841980 423.101837,470.600647 421.763824,471.549774 
	C419.875885,472.888947 418.087921,474.369049 416.033539,475.457092 
	C421.250641,469.808228 425.526245,463.743866 427.216522,456.211548 
	C430.705017,440.666321 425.317108,427.906647 414.579407,416.899628 
	C417.944397,405.944183 420.430817,394.797943 419.896332,383.284363 
	C419.637939,377.718170 418.213348,372.213074 417.492889,366.657532 
	C417.243225,364.732635 417.182281,362.654968 417.637390,360.794373 
	C418.511993,357.218903 417.777679,354.625854 414.118286,352.812683 
	C424.924957,354.372192 434.391205,359.624695 443.405701,365.726776 
	C448.287598,369.031342 452.806519,372.872131 457.589355,376.778595 
	C454.020935,374.765594 450.352234,372.445068 446.112244,369.815247 
	C443.030762,367.887054 440.557831,366.206421 438.002167,364.662872 
	C433.523560,361.957916 430.004150,363.782593 430.060486,368.985992 
	C430.110504,373.610596 430.991760,378.233826 430.933899,382.850494 
	C430.774323,395.584564 430.218506,408.313232 430.007446,421.047150 
	C429.860870,429.889618 429.094574,438.869049 430.323212,447.543976 
	C431.461151,455.578644 428.553558,462.089539 425.987793,468.998291 
z"/>
<path fill="#C2C4B0" opacity="1.000000" stroke="none" 
	d="
M171.970978,132.583801 
	C174.054230,128.141907 172.481262,123.718582 172.333206,119.194977 
	C171.955948,107.668449 172.111206,96.023575 173.439484,84.587044 
	C174.053604,79.299446 171.796814,76.612892 168.978165,73.041397 
	C174.617020,72.538292 180.347931,72.386589 186.530975,72.354576 
	C190.265045,79.971321 187.948639,87.708206 187.526489,95.245209 
	C187.011978,104.431374 184.927490,113.487541 187.613831,122.712563 
	C188.779175,126.714386 188.346252,130.722290 182.787659,132.808853 
	C178.706314,132.915497 175.338654,132.749649 171.970978,132.583801 
z"/>
<path fill="#29B7C5" opacity="1.000000" stroke="none" 
	d="
M480.421753,133.165085 
	C482.761108,132.432587 485.451172,131.891357 488.145142,131.349350 
	C483.367737,119.177620 486.344513,106.653671 486.524414,94.296288 
	C486.619080,87.797302 487.806030,81.316422 488.396942,74.818008 
	C488.440674,74.336945 487.651642,73.780159 487.116089,73.004929 
	C492.293915,72.613174 497.604736,72.407272 502.917084,72.353729 
	C509.880066,72.283539 516.857361,72.583992 523.802124,72.220718 
	C527.020447,72.052368 528.452942,72.596603 528.429443,76.030998 
	C528.306458,94.024780 528.250488,112.019295 528.266846,130.013474 
	C528.269531,132.966293 526.870911,133.666122 524.250793,133.639847 
	C509.758514,133.494522 495.265320,133.441193 480.421753,133.165085 
M496.126556,75.254639 
	C495.093658,76.799011 493.148956,78.360229 493.177124,79.884995 
	C493.348816,89.177338 493.863770,98.468414 494.481903,107.745415 
	C494.812256,112.703575 495.349884,117.672707 496.205902,122.564812 
	C497.278290,128.693222 500.271973,130.862808 506.524902,131.017288 
	C511.336212,131.136154 516.146606,131.413910 520.948608,131.747635 
	C524.229065,131.975632 525.973572,130.832748 526.032532,127.314133 
	C526.299988,111.343887 526.576782,95.372978 527.023254,79.407135 
	C527.141052,75.193443 525.385559,73.745041 521.371338,73.976860 
	C513.244019,74.446205 505.106049,74.730766 496.126556,75.254639 
z"/>
<path fill="#CFC3AB" opacity="1.000000" stroke="none" 
	d="
M102.566170,107.746071 
	C101.350250,110.096512 99.992500,112.712143 98.250282,115.040062 
	C80.710968,138.475739 76.473068,164.676071 81.992294,192.896927 
	C84.307167,204.733353 88.391212,215.890778 95.224243,225.940094 
	C95.668434,226.593369 95.767258,227.481476 96.025490,228.628632 
	C87.361694,218.200668 82.880768,205.530060 80.380348,192.205292 
	C74.478844,160.756073 80.951004,132.354523 102.566170,107.746071 
z"/>
<path fill="#7695CF" opacity="1.000000" stroke="none" 
	d="
M399.384521,544.443176 
	C403.384979,543.186951 407.741028,541.875061 412.184021,541.009277 
	C418.654388,539.748535 421.630280,534.270630 425.587494,530.084595 
	C426.615112,528.997559 426.105255,526.411377 426.210236,524.508789 
	C426.356659,521.855042 426.417206,519.196594 426.992950,516.591370 
	C427.646698,517.933167 427.745636,519.239685 428.011841,520.511230 
	C428.793732,524.245850 429.642059,527.966614 430.464417,531.692749 
	C434.642548,529.795166 438.820648,527.897583 442.998779,526.000000 
	C446.915649,523.580139 450.869995,521.218079 454.731476,518.712891 
	C456.341888,517.668091 457.754608,516.318604 459.591675,515.043823 
	C452.067963,525.113220 441.732452,532.199707 430.005249,536.603027 
	C420.299042,540.247559 409.881409,541.997559 399.384521,544.443176 
z"/>
<path fill="#9088C8" opacity="1.000000" stroke="none" 
	d="
M351.888580,161.550034 
	C351.484222,159.137466 350.947632,156.347015 351.045746,153.579071 
	C351.185059,149.647964 349.474762,148.325226 345.895721,149.299026 
	C341.085815,150.607773 336.328400,152.109421 331.280334,153.764130 
	C329.770233,154.286072 328.528290,154.572174 326.901733,154.835388 
	C333.980072,152.323090 341.410706,149.729568 348.923615,147.401352 
	C351.506500,146.600937 352.525726,148.321503 352.442322,150.747665 
	C352.322754,154.226349 352.175293,157.704071 351.888580,161.550034 
z"/>
<path fill="#9088C8" opacity="1.000000" stroke="none" 
	d="
M395.593323,349.866150 
	C389.991089,350.686646 384.006805,351.193054 378.070465,352.036926 
	C373.874664,352.633362 369.743835,353.686920 365.291077,354.767578 
	C362.477783,355.438751 359.957428,355.878693 357.194580,356.100220 
	C369.272369,351.099396 382.045441,349.119141 395.593323,349.866150 
z"/>
<path fill="#4FC3CB" opacity="1.000000" stroke="none" 
	d="
M477.550049,72.636566 
	C476.125793,73.194626 474.264679,73.900734 472.389771,73.939537 
	C465.572266,74.080643 458.750122,73.998405 451.470032,73.785675 
	C451.034851,73.290428 451.042816,73.009415 451.034271,72.727936 
	C459.725128,72.644760 468.415985,72.561592 477.550049,72.636566 
z"/>
<path fill="#AEC3B2" opacity="1.000000" stroke="none" 
	d="
M142.269928,79.869148 
	C141.702072,80.479210 140.947403,80.990227 140.050613,81.692139 
	C135.467682,83.875610 131.026871,85.868195 126.225540,87.870743 
	C131.271057,85.177177 136.677094,82.473640 142.269928,79.869148 
z"/>
<path fill="#AEC3B2" opacity="1.000000" stroke="none" 
	d="
M106.038666,105.639992 
	C105.195938,106.262756 104.532265,106.601990 103.590591,106.963989 
	C106.664177,103.490883 110.015778,99.995018 113.674965,96.429001 
	C111.394272,99.358055 108.805992,102.357254 106.038666,105.639992 
z"/>
<path fill="#AEC3B2" opacity="1.000000" stroke="none" 
	d="
M168.400909,271.054688 
	C172.795120,270.726776 177.549530,270.586273 182.641327,270.677612 
	C178.239532,271.020355 173.500320,271.131256 168.400909,271.054688 
z"/>
<path fill="#7695CF" opacity="1.000000" stroke="none" 
	d="
M385.501587,544.782593 
	C388.498596,544.465637 391.817139,544.347778 395.474030,544.402100 
	C392.482605,544.710022 389.152893,544.845886 385.501587,544.782593 
z"/>
<path fill="#9C8FD3" opacity="1.000000" stroke="none" 
	d="
M345.673187,534.456726 
	C347.918427,535.140503 350.352692,536.124756 352.897278,537.430298 
	C350.625793,536.753479 348.244019,535.755371 345.673187,534.456726 
z"/>
<path fill="#5BB9BD" opacity="1.000000" stroke="none" 
	d="
M450.613434,72.575073 
	C451.042816,73.009415 451.034851,73.290428 451.000854,73.781540 
	C449.926788,73.992920 448.862183,73.993736 447.398163,73.995445 
	C446.093262,73.733055 445.187836,73.469772 444.131317,72.960030 
	C446.051025,72.616455 448.121826,72.519341 450.613434,72.575073 
z"/>
<path fill="#9088C8" opacity="1.000000" stroke="none" 
	d="
M355.635620,356.387665 
	C354.098328,358.607208 352.423370,359.289642 351.595947,355.341888 
	C352.932587,355.542847 354.091400,356.004852 355.635620,356.387665 
z"/>
<path fill="#5BB9BD" opacity="1.000000" stroke="none" 
	d="
M331.364685,133.304108 
	C332.766296,132.890472 334.529175,132.604736 336.562805,132.499847 
	C335.131012,132.931137 333.428497,133.181580 331.364685,133.304108 
z"/>
<path fill="#AEC3B2" opacity="1.000000" stroke="none" 
	d="
M122.057373,91.652008 
	C121.419083,91.913368 120.957710,91.926720 120.152191,91.901184 
	C121.318832,90.719345 122.829613,89.576385 124.659927,88.409592 
	C124.064407,89.391838 123.149353,90.397919 122.057373,91.652008 
z"/>
<path fill="#9088C8" opacity="1.000000" stroke="none" 
	d="
M315.285461,163.872772 
	C314.830505,164.036804 314.641724,164.027863 314.170166,163.998291 
	C315.053009,162.758316 316.218597,161.539001 317.704681,160.269562 
	C317.200653,161.379593 316.376129,162.539719 315.285461,163.872772 
z"/>
<path fill="#AEC3B2" opacity="1.000000" stroke="none" 
	d="
M188.303223,270.680481 
	C189.139130,270.202271 190.313919,269.835754 191.728699,269.665771 
	C190.859818,270.172272 189.750961,270.482208 188.303223,270.680481 
z"/>
<path fill="#9088C8" opacity="1.000000" stroke="none" 
	d="
M324.194214,157.756485 
	C323.456146,157.968781 322.909271,157.948303 321.956024,157.867676 
	C322.812500,156.922028 324.075348,156.036530 325.674255,155.130341 
	C325.468658,155.914337 324.927032,156.719025 324.194214,157.756485 
z"/>
<path fill="#CFC3AB" opacity="1.000000" stroke="none" 
	d="
M100.537003,235.248077 
	C101.316002,235.754105 102.134789,236.549362 102.990463,237.647873 
	C102.210495,237.146515 101.393639,236.341919 100.537003,235.248077 
z"/>
<path fill="#AEC3B2" opacity="1.000000" stroke="none" 
	d="
M118.706024,92.483971 
	C118.133232,93.244308 117.265106,94.047081 116.077438,94.838394 
	C116.642159,94.060089 117.526421,93.293251 118.706024,92.483971 
z"/>
<path fill="#CFC3AB" opacity="1.000000" stroke="none" 
	d="
M112.150696,247.242599 
	C113.002754,247.617676 113.954567,248.268921 114.985420,249.215179 
	C114.126450,248.846390 113.188446,248.182587 112.150696,247.242599 
z"/>
<path fill="#CFC3AB" opacity="1.000000" stroke="none" 
	d="
M96.665222,230.202942 
	C96.955338,229.886063 97.262932,229.897354 97.799538,229.968445 
	C98.335304,230.785309 98.640701,231.579483 98.974411,232.692276 
	C98.229843,232.171936 97.456955,231.332962 96.665222,230.202942 
z"/>
<path fill="#7695CF" opacity="1.000000" stroke="none" 
	d="
M465.463501,508.399902 
	C465.807434,507.422180 466.446625,506.297699 467.422089,505.090637 
	C467.091827,506.089722 466.425293,507.171417 465.463501,508.399902 
z"/>
<path fill="#AEC3B2" opacity="1.000000" stroke="none" 
	d="
M159.271133,269.924927 
	C159.031250,269.704865 159.009384,269.313538 159.035995,269.118591 
	C159.950714,269.215302 160.838806,269.506989 161.873413,270.045044 
	C161.183624,270.242584 160.347321,270.193756 159.271133,269.924927 
z"/>
<path fill="#5BB9BD" opacity="1.000000" stroke="none" 
	d="
M431.659790,72.545296 
	C431.087463,72.840820 430.146851,72.989609 429.088501,72.910843 
	C429.744324,72.588379 430.517883,72.493469 431.659790,72.545296 
z"/>
<path fill="#AEC3B2" opacity="1.000000" stroke="none" 
	d="
M195.263245,269.440521 
	C195.821823,269.031891 196.683411,268.736755 197.746140,268.617493 
	C197.153610,269.046936 196.359909,269.300476 195.263245,269.440521 
z"/>
<path fill="#7695CF" opacity="1.000000" stroke="none" 
	d="
M411.686707,352.000031 
	C411.010315,352.116211 410.085968,352.028992 409.070679,351.680511 
	C409.799408,351.545044 410.619080,351.670837 411.686707,352.000031 
z"/>
<path fill="#CFC3AB" opacity="1.000000" stroke="none" 
	d="
M117.115631,251.278152 
	C117.434807,250.983597 117.883530,250.978271 118.668709,250.985214 
	C119.261505,251.513382 119.517860,252.029297 119.870300,252.816986 
	C119.059326,252.581635 118.152260,252.074509 117.115631,251.278152 
z"/>
<path fill="#7695CF" opacity="1.000000" stroke="none" 
	d="
M467.333923,387.538696 
	C466.876373,387.894897 466.341553,387.931732 465.404968,387.974548 
	C465.004913,387.221649 465.006561,386.462738 465.020630,385.324463 
	C465.774231,385.703186 466.515442,386.461273 467.333923,387.538696 
z"/>
<path fill="#CFC3AB" opacity="1.000000" stroke="none" 
	d="
M120.013481,253.311340 
	C120.550354,253.383804 121.188370,253.715759 121.927185,254.314606 
	C121.390190,254.244614 120.752403,253.907730 120.013481,253.311340 
z"/>
<path fill="#5BB9BD" opacity="1.000000" stroke="none" 
	d="
M440.690582,72.569298 
	C440.398712,72.835945 439.775848,72.962448 439.065338,72.897873 
	C439.438324,72.614235 439.898956,72.521690 440.690582,72.569298 
z"/>
<path fill="#7695CF" opacity="1.000000" stroke="none" 
	d="
M469.651733,502.280914 
	C469.685455,501.680145 469.990662,500.938812 470.605896,500.089844 
	C470.585022,500.701599 470.254089,501.420990 469.651733,502.280914 
z"/>
<path fill="#7695CF" opacity="1.000000" stroke="none" 
	d="
M463.411682,511.214905 
	C463.496002,510.621887 463.867157,509.913574 464.542542,509.107239 
	C464.464020,509.706024 464.081238,510.402802 463.411682,511.214905 
z"/>
<path fill="#9088C8" opacity="1.000000" stroke="none" 
	d="
M320.704315,158.176300 
	C320.428925,158.718445 319.843292,159.281815 318.925598,159.837067 
	C319.193726,159.285141 319.793915,158.741333 320.704315,158.176300 
z"/>
<path fill="#9C8FD3" opacity="1.000000" stroke="none" 
	d="
M340.519287,531.489136 
	C341.160767,531.535034 341.960724,531.872253 342.882385,532.533020 
	C342.228668,532.497864 341.453186,532.139221 340.519287,531.489136 
z"/>
<path fill="#7695CF" opacity="1.000000" stroke="none" 
	d="
M375.255005,543.880432 
	C375.590454,543.499756 376.055725,543.287354 376.786560,543.084106 
	C377.052124,543.093262 377.014435,543.506592 376.988281,543.712463 
	C376.436340,543.961792 375.910614,544.005249 375.255005,543.880432 
z"/>
<path fill="#020203" opacity="1.000000" stroke="none" 
	d="
M414.233154,416.783630 
	C425.317108,427.906647 430.705017,440.666321 427.216522,456.211548 
	C425.526245,463.743866 421.250641,469.808228 415.657440,475.435364 
	C415.061432,475.984406 414.617828,476.223297 413.747925,476.754333 
	C412.672028,477.624268 412.022430,478.202057 411.372864,478.779907 
	C407.491730,480.234772 403.610565,481.689667 399.106354,483.256592 
	C398.008392,483.627136 397.533478,483.885620 397.058594,484.144165 
	C392.674591,484.172638 388.290588,484.201080 383.447876,484.317932 
	C365.948822,480.933136 356.100586,470.333435 352.230652,453.290466 
	C351.964325,451.598694 351.920624,450.205750 351.852539,447.992554 
	C351.764191,445.444336 351.700226,443.716431 351.636261,441.988525 
	C351.804810,441.246307 351.973358,440.504120 352.284241,439.138733 
	C352.529022,437.673676 352.631500,436.831818 352.733978,435.989960 
	C352.882935,435.565521 353.031891,435.141083 353.144745,434.377167 
	C357.508118,424.128998 364.144135,416.412109 374.715210,412.062653 
	C388.689178,407.566589 401.868500,407.432831 414.233154,416.783630 
z"/>
<path fill="#9C8FD3" opacity="1.000000" stroke="none" 
	d="
M351.335327,442.133606 
	C351.700226,443.716431 351.764191,445.444336 351.722351,447.593140 
	C351.422516,446.102295 351.228485,444.190491 351.335327,442.133606 
z"/>
<path fill="#9C8FD3" opacity="1.000000" stroke="none" 
	d="
M352.456390,436.081970 
	C352.631500,436.831818 352.529022,437.673676 352.213928,438.760742 
	C352.060486,438.061951 352.119659,437.117981 352.456390,436.081970 
z"/>
<path fill="#020203" opacity="1.000000" stroke="none" 
	d="
M171.609497,132.769852 
	C175.338654,132.749649 178.706314,132.915497 182.531479,133.046570 
	C189.242264,136.230576 196.281250,138.519989 201.515060,142.944687 
	C206.205536,146.910019 208.908768,153.225967 212.743057,158.748993 
	C215.129913,168.930099 215.654510,178.746033 210.753876,188.532318 
	C205.869583,193.961517 201.032898,199.015472 196.020599,204.344147 
	C195.375259,204.773376 194.905533,204.927872 193.838043,205.336044 
	C191.243271,206.457138 189.246231,207.324570 187.249191,208.192001 
	C186.713409,208.260773 186.177628,208.329544 184.945999,208.440277 
	C182.927460,208.722794 181.604782,208.963364 180.282089,209.203918 
	C178.401642,209.200287 176.521210,209.196655 173.943069,209.043518 
	C171.922668,208.902756 170.599945,208.911484 169.277237,208.920227 
	C168.100525,208.618958 166.923828,208.317703 165.368683,208.031845 
	C155.723816,204.731918 149.227371,198.098984 143.433746,190.109848 
	C142.653534,188.778259 142.156387,187.622116 141.437469,185.869812 
	C140.509079,183.164276 139.802475,181.054855 139.095871,178.945450 
	C139.041489,176.918884 138.987122,174.892319 138.935913,172.073303 
	C138.859009,170.512207 138.778946,169.743530 138.698883,168.974869 
	C138.866516,167.607178 139.034164,166.239502 139.154999,164.460388 
	C141.912292,153.705475 146.455261,144.371857 156.186325,138.933548 
	C160.860565,136.321304 166.206345,134.910690 171.609497,132.769852 
z"/>
<path fill="#CFC3AB" opacity="1.000000" stroke="none" 
	d="
M138.864044,179.195160 
	C139.802475,181.054855 140.509079,183.164276 141.200958,185.657532 
	C140.334900,183.842545 139.483551,181.643692 138.864044,179.195160 
z"/>
<path fill="#CFC3AB" opacity="1.000000" stroke="none" 
	d="
M138.419769,169.065933 
	C138.778946,169.743530 138.859009,170.512207 138.820618,171.653381 
	C138.514999,171.069611 138.327820,170.113297 138.419769,169.065933 
z"/>
<path fill="#749BD8" opacity="1.000000" stroke="none" 
	d="
M443.068848,525.610718 
	C438.820648,527.897583 434.642548,529.795166 430.464417,531.692749 
	C429.642059,527.966614 428.793732,524.245850 428.011841,520.511230 
	C427.745636,519.239685 427.646698,517.933167 427.228790,516.320496 
	C426.654388,500.643890 426.322571,485.289398 425.989258,469.466583 
	C428.553558,462.089539 431.461151,455.578644 430.323212,447.543976 
	C429.094574,438.869049 429.860870,429.889618 430.007446,421.047150 
	C430.218506,408.313232 430.774323,395.584564 430.933899,382.850494 
	C430.991760,378.233826 430.110504,373.610596 430.060486,368.985992 
	C430.004150,363.782593 433.523560,361.957916 438.002167,364.662872 
	C440.557831,366.206421 443.030762,367.887054 445.769470,369.752960 
	C444.999207,372.121460 443.126099,374.260376 443.168030,376.361053 
	C443.286285,382.282715 444.234772,388.184692 444.775879,394.101715 
	C445.554352,402.614655 446.802551,411.129303 446.877563,419.651794 
	C447.000397,433.602936 446.219269,447.559692 446.073029,461.516724 
	C446.018005,466.767181 447.470856,472.121826 446.850067,477.261536 
	C444.924194,493.207092 448.202454,509.544861 443.068848,525.610718 
z"/>
<path fill="#B688D6" opacity="1.000000" stroke="none" 
	d="
M306.632690,204.664185 
	C305.985229,213.579102 305.510254,222.090729 304.937592,230.595764 
	C304.793274,232.739105 303.880798,234.910980 304.106415,236.984329 
	C304.867493,243.979492 305.959137,250.939514 306.979218,257.904938 
	C307.193329,259.366791 307.903198,260.787567 307.941132,262.238831 
	C308.347748,277.795898 308.693024,293.354706 308.999817,308.914154 
	C309.362488,327.310516 309.343170,345.721375 310.094025,364.101227 
	C310.857513,382.789795 312.852814,401.438629 313.218628,420.126190 
	C313.322510,425.435425 312.888184,430.627747 313.705078,436.049011 
	C314.826630,443.491760 314.285828,451.170868 314.741730,458.731537 
	C315.353638,468.879822 316.210541,479.013855 317.023315,489.149139 
	C317.221863,491.624634 317.886047,494.080414 317.893005,496.546539 
	C317.896729,497.864716 316.955475,499.185516 316.440704,500.505157 
	C315.029114,499.886993 313.314575,499.592560 312.253754,498.599640 
	C303.513458,490.418915 299.802063,479.527588 297.289612,468.370850 
	C295.664337,461.153778 295.106598,453.562561 295.092407,446.137054 
	C294.943512,368.191193 294.906128,290.244568 295.147186,212.299164 
	C295.171539,204.422714 297.219116,196.552170 298.340668,188.680740 
	C298.386505,188.358978 298.480621,187.973404 298.693756,187.756851 
	C301.460541,184.945755 305.234131,179.349533 306.848602,179.913132 
	C311.095642,181.395798 308.776520,186.376770 308.465790,189.978790 
	C308.054016,194.751938 307.348328,199.499756 306.632690,204.664185 
z"/>
<path fill="#7695CF" opacity="1.000000" stroke="none" 
	d="
M411.737030,478.786255 
	C412.022430,478.202057 412.672028,477.624268 413.649109,476.993103 
	C413.351471,477.557373 412.726349,478.175018 411.737030,478.786255 
z"/>
<path fill="#7695CF" opacity="1.000000" stroke="none" 
	d="
M397.222473,484.302704 
	C397.533478,483.885620 398.008392,483.627136 398.752441,483.440826 
	C398.476471,483.829102 397.931396,484.145203 397.222473,484.302704 
z"/>
<path fill="#9088C8" opacity="1.000000" stroke="none" 
	d="
M187.479279,208.347015 
	C189.246231,207.324570 191.243271,206.457138 193.562683,205.590424 
	C191.826492,206.561447 189.767929,207.531738 187.479279,208.347015 
z"/>
<path fill="#9088C8" opacity="1.000000" stroke="none" 
	d="
M169.486847,209.133331 
	C170.599945,208.911484 171.922668,208.902756 173.473450,209.075928 
	C172.366501,209.287369 171.031479,209.316895 169.486847,209.133331 
z"/>
<path fill="#9088C8" opacity="1.000000" stroke="none" 
	d="
M180.502869,209.389862 
	C181.604782,208.963364 182.927460,208.722794 184.572662,208.601868 
	C183.504654,209.006271 182.114166,209.291031 180.502869,209.389862 
z"/>
<path fill="#10C1D3" opacity="1.000000" stroke="none" 
	d="
M496.549500,75.173080 
	C505.106049,74.730766 513.244019,74.446205 521.371338,73.976860 
	C525.385559,73.745041 527.141052,75.193443 527.023254,79.407135 
	C526.576782,95.372978 526.299988,111.343887 526.032532,127.314133 
	C525.973572,130.832748 524.229065,131.975632 520.948608,131.747635 
	C516.146606,131.413910 511.336212,131.136154 506.524902,131.017288 
	C500.271973,130.862808 497.278290,128.693222 496.205902,122.564812 
	C495.349884,117.672707 494.812256,112.703575 494.481903,107.745415 
	C493.863770,98.468414 493.348816,89.177338 493.177124,79.884995 
	C493.148956,78.360229 495.093658,76.799011 496.549500,75.173080 
z"/>
</svg>