<svg version="1.1" id="Layer_1" xmlns="http://www.w3.org/2000/svg" xmlns:xlink="http://www.w3.org/1999/xlink" x="0px" y="0px"
	 width="100%" viewBox="0 0 64 64" enable-background="new 0 0 64 64" xml:space="preserve">
<path fill="#000000" opacity="1.000000" stroke="none" 
	d="
M41.000072,65.000000 
	C27.333387,65.000000 14.166720,65.000000 1.000040,65.000000 
	C1.000027,43.666683 1.000027,22.333368 1.000013,1.000040 
	C22.333315,1.000027 43.666630,1.000027 64.999954,1.000013 
	C64.999969,22.333315 64.999969,43.666630 64.999985,64.999969 
	C57.166698,65.000000 49.333393,65.000000 41.000072,65.000000 
M60.929729,47.774166 
	C60.950050,40.627369 61.053741,33.478798 60.901985,26.335655 
	C60.878872,25.247776 59.672199,24.185043 59.012951,23.110680 
	C58.345165,24.176329 57.144619,25.220377 57.100388,26.311306 
	C56.891796,31.455780 57.092712,36.615288 56.971169,41.765270 
	C56.826424,47.898251 54.613117,50.743721 48.932106,50.893818 
	C37.983875,51.183083 27.022587,50.978168 16.086929,50.978168 
	C16.389406,48.889080 16.648153,47.102013 16.906900,45.314945 
	C16.435881,44.932278 15.964860,44.549610 15.493839,44.166946 
	C12.234843,46.398163 8.893041,48.523140 5.783800,50.946499 
	C5.129096,51.456779 4.961647,53.150997 5.203163,54.145908 
	C5.883605,56.948944 13.653464,60.882629 17.087391,60.133652 
	C16.749109,58.500153 16.412876,56.876549 16.024189,54.999657 
	C27.688900,54.999657 38.985115,54.886845 50.277302,55.051170 
	C55.302574,55.124298 58.884010,53.404861 60.929729,47.774166 
M58.921703,16.513138 
	C62.541821,14.460970 59.986885,11.904079 58.816120,10.417162 
	C56.516693,7.496801 53.919506,4.210733 48.855350,5.570259 
	C49.247581,7.457292 49.587822,9.094181 49.984371,11.001985 
	C37.703098,11.001985 25.742701,10.972316 13.782582,11.016909 
	C9.142222,11.034210 5.171559,14.325098 5.063723,18.540197 
	C4.880959,25.684011 4.944818,32.837299 5.092640,39.982723 
	C5.112921,40.963085 6.209185,41.921181 6.807291,42.889587 
	C7.534389,41.883896 8.847578,40.902321 8.890120,39.868462 
	C9.108661,34.557392 8.955838,29.232342 9.020053,23.913229 
	C9.076034,19.276047 11.029366,15.439588 15.909009,15.271552 
	C27.256474,14.880791 38.626564,15.147041 49.802837,15.147041 
	C49.509388,17.283123 49.281906,18.939013 49.054428,20.594904 
	C49.459583,20.954069 49.864742,21.313234 50.269897,21.672400 
	C52.949539,20.082518 55.629181,18.492636 58.921703,16.513138 
z"/>
<path fill="#5C5C7B" opacity="1.000000" stroke="none" 
	d="
M60.837212,48.191113 
	C58.884010,53.404861 55.302574,55.124298 50.277302,55.051170 
	C38.985115,54.886845 27.688900,54.999657 16.024189,54.999657 
	C16.412876,56.876549 16.749109,58.500153 17.087391,60.133652 
	C13.653464,60.882629 5.883605,56.948944 5.203163,54.145908 
	C4.961647,53.150997 5.129096,51.456779 5.783800,50.946499 
	C8.893041,48.523140 12.234843,46.398163 15.493839,44.166946 
	C15.964860,44.549610 16.435881,44.932278 16.906900,45.314945 
	C16.648153,47.102013 16.389406,48.889080 16.086929,50.978168 
	C27.022587,50.978168 37.983875,51.183083 48.932106,50.893818 
	C54.613117,50.743721 56.826424,47.898251 56.971169,41.765270 
	C57.092712,36.615288 56.891796,31.455780 57.100388,26.311306 
	C57.144619,25.220377 58.345165,24.176329 59.012951,23.110680 
	C59.672199,24.185043 60.878872,25.247776 60.901985,26.335655 
	C61.053741,33.478798 60.950050,40.627369 60.837212,48.191113 
z"/>
<path fill="#5C5C7B" opacity="1.000000" stroke="none" 
	d="
M58.615265,16.707947 
	C55.629181,18.492636 52.949539,20.082518 50.269897,21.672400 
	C49.864742,21.313234 49.459583,20.954069 49.054428,20.594904 
	C49.281906,18.939013 49.509388,17.283123 49.802837,15.147041 
	C38.626564,15.147041 27.256474,14.880791 15.909009,15.271552 
	C11.029366,15.439588 9.076034,19.276047 9.020053,23.913229 
	C8.955838,29.232342 9.108661,34.557392 8.890120,39.868462 
	C8.847578,40.902321 7.534389,41.883896 6.807290,42.889587 
	C6.209185,41.921181 5.112921,40.963085 5.092640,39.982723 
	C4.944818,32.837299 4.880959,25.684011 5.063723,18.540197 
	C5.171559,14.325098 9.142222,11.034210 13.782582,11.016909 
	C25.742701,10.972316 37.703098,11.001985 49.984371,11.001985 
	C49.587822,9.094181 49.247581,7.457292 48.855350,5.570259 
	C53.919506,4.210733 56.516693,7.496801 58.816120,10.417162 
	C59.986885,11.904079 62.541821,14.460970 58.615265,16.707947 
z"/>
</svg>